<svg width="40" height="40" viewBox="0 0 40 40" fill="none" xmlns="http://www.w3.org/2000/svg">
<mask id="mask0_186_226" style="mask-type:luminance" maskUnits="userSpaceOnUse" x="0" y="0" width="40" height="40">
<path d="M0 0H40V40H0V0Z" fill="white"/>
<path fill-rule="evenodd" clip-rule="evenodd" d="M20.5138 7.3138L13.3138 13.7415H7.69227C7.28424 13.7415 6.89293 13.9036 6.60441 14.1921C6.3159 14.4806 6.15381 14.8719 6.15381 15.28V24.5107C6.15381 24.9188 6.3159 25.3101 6.60441 25.5986C6.89293 25.8871 7.28424 26.0492 7.69227 26.0492H13.1307L20.5092 32.683C21.5 33.5723 23.0769 32.8707 23.0769 31.5384V8.4615C23.0769 7.13226 21.5061 6.42919 20.5138 7.3138ZM14.8707 16.4753L20 11.8969V28.0861L15.1907 23.763C15.0574 23.5233 14.8625 23.3236 14.6261 23.1846C14.3897 23.0456 14.1204 22.9723 13.8461 22.9723H9.23073V16.8184H13.463C13.9277 16.94 14.4507 16.8492 14.8707 16.4753Z" fill="black"/>
<path d="M28.4446 24.7214C28.2125 24.921 27.9106 25.0201 27.6053 24.997C27.3 24.9739 27.0165 24.8305 26.8169 24.5984C26.6174 24.3662 26.5183 24.0643 26.5414 23.759C26.5645 23.4538 26.7079 23.1702 26.94 22.9707C26.9923 22.9261 27.0431 22.8784 27.0939 22.8261C27.3062 22.6061 27.4954 22.3276 27.6508 22.0014C27.9384 21.3737 28.0839 20.6903 28.0769 19.9999C28.0769 18.8399 27.6923 17.7953 27.0939 17.1738C27.0448 17.1232 26.9935 17.075 26.94 17.0291C26.7079 16.8296 26.5645 16.546 26.5414 16.2408C26.5183 15.9355 26.6174 15.6336 26.8169 15.4014C27.0165 15.1693 27.3 15.0259 27.6053 15.0028C27.9106 14.9797 28.2125 15.0788 28.4446 15.2784C28.5523 15.3707 28.6554 15.4691 28.7554 15.5722C29.7862 16.643 30.3846 18.2645 30.3846 19.9999C30.3846 21.0707 30.1585 22.1014 29.7339 22.9922C29.4754 23.5384 29.1446 24.023 28.7554 24.4276C28.6565 24.5299 28.5528 24.6289 28.4446 24.7214Z" fill="black"/>
<path d="M29.863 29.4261C29.6072 29.5836 29.3001 29.6352 29.007 29.5698C28.7138 29.5045 28.4577 29.3274 28.293 29.0762C28.1283 28.825 28.0681 28.5195 28.1251 28.2246C28.1822 27.9296 28.3519 27.6686 28.5984 27.4969C29.3501 27.0024 30.0259 26.4013 30.6045 25.7123C31.1768 25.0287 31.6454 24.2646 31.9953 23.4446C32.5743 22.0801 32.7992 20.5915 32.6492 19.1169C32.4734 17.3365 31.7603 15.6517 30.6045 14.2861C30.0268 13.5967 29.3508 12.9959 28.5984 12.5031C28.467 12.4222 28.3532 12.3157 28.2637 12.1901C28.1742 12.0645 28.1108 11.9221 28.0772 11.7716C28.0436 11.621 28.0406 11.4652 28.0683 11.3134C28.096 11.1617 28.1538 11.017 28.2384 10.888C28.323 10.759 28.4326 10.6482 28.5607 10.5623C28.6888 10.4763 28.8329 10.417 28.9843 10.3877C29.1358 10.3584 29.2916 10.3598 29.4425 10.3917C29.5935 10.4237 29.7364 10.4856 29.863 10.5738C31.1179 11.398 32.2001 12.4588 33.0492 13.6969C33.6806 14.6216 34.1706 15.6353 34.503 16.7046C34.945 18.1292 35.0952 19.6283 34.9445 21.1123C34.6855 23.7364 33.5048 26.1838 31.6122 28.02C31.0761 28.5443 30.4903 29.0152 29.863 29.4261Z" fill="black"/>
</mask>
<g mask="url(#mask0_186_226)">
<path d="M20 40C31.0457 40 40 31.0457 40 20C40 8.9543 31.0457 0 20 0C8.9543 0 0 8.9543 0 20C0 31.0457 8.9543 40 20 40Z" fill="#EBF9FA"/>
</g>
</svg>
