<svg width="22" height="23" viewBox="0 0 22 23" fill="none" xmlns="http://www.w3.org/2000/svg">
<path d="M3.28033 1.2394L11.0003 8.9594L18.6803 1.2794C18.85 1.09884 19.0543 0.954391 19.2812 0.854726C19.508 0.755062 19.7526 0.702231 20.0003 0.699402C20.5308 0.699402 21.0395 0.910115 21.4145 1.28519C21.7896 1.66026 22.0003 2.16897 22.0003 2.6994C22.005 2.94461 21.9595 3.18818 21.8666 3.41516C21.7738 3.64215 21.6355 3.84777 21.4603 4.0194L13.6803 11.6994L21.4603 19.4794C21.79 19.8019 21.9832 20.2386 22.0003 20.6994C22.0003 21.2298 21.7896 21.7385 21.4145 22.1136C21.0395 22.4887 20.5308 22.6994 20.0003 22.6994C19.7454 22.71 19.4911 22.6674 19.2536 22.5745C19.016 22.4815 18.8003 22.3402 18.6203 22.1594L11.0003 14.4394L3.30033 22.1394C3.13134 22.3139 2.92945 22.4533 2.70633 22.5494C2.4832 22.6455 2.24325 22.6965 2.00033 22.6994C1.46989 22.6994 0.961185 22.4887 0.586112 22.1136C0.211039 21.7385 0.000325413 21.2298 0.000325413 20.6994C-0.00433758 20.4542 0.0411562 20.2106 0.134015 19.9836C0.226874 19.7567 0.36514 19.551 0.540325 19.3794L8.32032 11.6994L0.540325 3.9194C0.210695 3.59692 0.0174046 3.16023 0.000325413 2.6994C0.000325413 2.16897 0.211039 1.66026 0.586112 1.28519C0.961185 0.910115 1.46989 0.699402 2.00033 0.699402C2.48033 0.705402 2.94033 0.899402 3.28033 1.2394Z" fill="#F24E1E"/>
</svg>
