<svg width="16" height="16" viewBox="0 0 16 16" fill="none" xmlns="http://www.w3.org/2000/svg">
<path fill-rule="evenodd" clip-rule="evenodd" d="M0 8C0 5.87827 0.842855 3.84344 2.34315 2.34315C3.84344 0.842855 5.87827 0 8 0C10.1217 0 12.1566 0.842855 13.6569 2.34315C15.1571 3.84344 16 5.87827 16 8C16 10.1217 15.1571 12.1566 13.6569 13.6569C12.1566 15.1571 10.1217 16 8 16C5.87827 16 3.84344 15.1571 2.34315 13.6569C0.842855 12.1566 0 10.1217 0 8Z" fill="#84F25D"/>
<path fill-rule="evenodd" clip-rule="evenodd" d="M14.8574 7.99996C14.8574 7.09947 14.68 6.2078 14.3354 5.37585C13.9908 4.5439 13.4857 3.78798 12.8489 3.15123C12.2122 2.51449 11.4563 2.00939 10.6243 1.66479C9.79238 1.32019 8.9007 1.14282 8.00021 1.14282C7.09972 1.14282 6.20804 1.32019 5.37609 1.66479C4.54415 2.00939 3.78822 2.51449 3.15148 3.15123C2.51473 3.78798 2.00964 4.5439 1.66504 5.37585C1.32043 6.2078 1.14307 7.09947 1.14307 7.99996C1.14307 9.81859 1.86551 11.5627 3.15148 12.8487C4.43744 14.1347 6.18158 14.8571 8.00021 14.8571C9.81884 14.8571 11.563 14.1347 12.8489 12.8487C14.1349 11.5627 14.8574 9.81859 14.8574 7.99996Z" fill="#2C7A74"/>
<path d="M7.99993 11.7143C10.0513 11.7143 11.7142 10.0514 11.7142 8.00005C11.7142 5.94871 10.0513 4.28577 7.99993 4.28577C5.94859 4.28577 4.28564 5.94871 4.28564 8.00005C4.28564 10.0514 5.94859 11.7143 7.99993 11.7143Z" fill="#84F25D"/>
</svg>
