<svg width="73" height="75" viewBox="0 0 73 75" fill="none" xmlns="http://www.w3.org/2000/svg">
<ellipse cx="36.5" cy="37.5" rx="36.5" ry="37.5" fill="#EBF9FA"/>
<path d="M17.6022 61.4799C15.684 59.572 14.2007 57.3162 13.2432 54.8509C12.2856 52.3855 11.874 49.7625 12.0335 47.1424C12.0335 36.118 17.5053 32.6887 21.9025 29.9335L21.9046 29.9316C23.6457 29.0229 25.1653 27.7822 26.3658 26.2891C27.0237 25.2952 27.1145 24.2683 27.1145 17.8377C27.0506 16.6393 27.2487 15.4413 27.6968 14.3177C28.1448 13.194 28.8332 12.1685 29.7194 11.3045C31.4321 9.79673 33.7001 8.97104 36.0472 9.00078C40.6486 9.00078 43.8537 11.7501 44.8066 16.557C45.1572 19.8624 45.1469 23.1949 44.7798 26.4983H51.5716C53.666 26.5004 55.674 27.2829 57.1549 28.6741C58.6358 30.0652 59.4688 31.9515 59.471 33.919C59.4822 35.0891 59.224 36.2477 58.714 37.3154C60.4094 38.6465 61.5335 40.5898 61.5335 42.8179V42.8315C61.5621 44.5444 60.9488 46.2122 59.801 47.5435C60.9143 48.8025 61.5268 50.3862 61.5335 52.023C61.5574 53.0633 61.3399 54.096 60.8962 55.0493L60.8755 55.0958C60.4429 56.0361 59.7909 56.873 58.9677 57.5448C59.3175 58.4618 59.488 59.4306 59.471 60.4046V60.4085C59.471 62.2065 58.7904 63.9483 57.3528 65.2348C57.1816 65.3898 57.0022 65.5351 56.8124 65.6707C55.3638 66.7853 53.5125 67.3303 51.6459 67.1917H43.6145C43.5072 67.1917 43.402 67.1917 43.2948 67.1858H36.0616C27.9168 67.1858 21.7025 65.2716 17.6043 61.4799H17.6022ZM36.8474 63.3108H37.3672C36.9591 62.3913 36.7495 61.4047 36.7505 60.4085C36.7505 59.37 37.1362 57.8045 38.1385 56.4288C37.0557 54.8769 36.7505 53.1196 36.7505 52.023C36.7505 50.8605 37.1919 49.0818 38.3386 47.5454C37.6881 46.7025 37.2271 45.744 36.9835 44.7283C35.7399 48.3068 33.4979 52.2516 29.4822 55.5124C29.2773 55.6789 29.0395 55.8059 28.7824 55.8861C28.5252 55.9663 28.2538 55.9981 27.9836 55.9798C27.7133 55.9614 27.4496 55.8933 27.2074 55.7792C26.9652 55.6651 26.7493 55.5073 26.572 55.3148C26.3948 55.1223 26.2596 54.8989 26.1742 54.6573C26.0889 54.4158 26.055 54.1608 26.0745 53.9069C26.094 53.6531 26.1666 53.4053 26.2881 53.1778C26.4095 52.9503 26.5775 52.7475 26.7824 52.581C31.1013 49.0741 33.0029 44.5675 33.8155 40.8513C34.2198 38.9991 34.3477 37.3696 34.3724 36.211C34.3857 35.6243 34.3719 35.0374 34.3312 34.4518V34.4421C34.298 34.13 34.346 33.8149 34.471 33.5241C34.596 33.2332 34.7944 32.9752 35.049 32.7723C35.3035 32.5693 35.6068 32.4275 35.9326 32.3589C36.2585 32.2903 36.5972 32.2971 36.9196 32.3787C37.1011 31.4874 37.4476 30.4896 38.023 29.5693C38.6372 28.5604 39.5367 27.7309 40.6218 27.1726C40.9312 23.875 40.9724 20.5599 40.7497 17.2565C39.8772 12.8642 37.0372 12.8719 36.0059 12.8758H35.9317C34.7036 12.8652 33.517 13.2924 32.611 14.0712C32.1239 14.5805 31.7514 15.177 31.5157 15.8249C31.28 16.4728 31.186 17.1588 31.2395 17.8416C31.2395 24.3167 31.2395 26.2717 29.8659 28.3428C28.3719 30.3145 26.4394 31.9574 24.2022 33.1575L24.1878 33.1672C20.069 35.7518 16.1585 38.2047 16.1585 47.1443C15.9973 49.2492 16.2987 51.3627 17.0438 53.3535C17.7889 55.3444 18.9618 57.17 20.4897 58.717C23.9135 61.879 29.3915 63.4 36.8474 63.3108ZM51.5737 63.3108C52.9947 63.3108 54.0569 62.9388 54.686 62.253C55.0985 61.7957 55.346 61.1757 55.346 60.4085C55.346 59.9241 55.2944 59.5405 55.214 59.2382C54.5127 59.3738 53.7682 59.4436 52.9865 59.4436H44.3879C43.2309 59.4436 42.2182 59.2498 41.3457 58.9205C41.2793 59.0356 41.2194 59.154 41.1663 59.275C40.9435 59.7749 40.8775 60.2108 40.8775 60.4085C40.8775 61.2067 41.1477 61.9682 41.5994 62.4893C41.9789 62.9253 42.5337 63.2624 43.3938 63.3108H51.5737ZM56.3587 49.7406C55.2719 50.0819 54.1323 50.2509 52.9865 50.2405H44.1487C43.2412 50.2405 42.4079 50.1048 41.653 49.8568C41.4737 50.1128 41.323 50.3855 41.2034 50.6706C40.9559 51.2518 40.8755 51.7653 40.8755 52.023C40.8755 52.5848 41.0611 53.5536 41.5973 54.3189C42.0573 54.9718 42.8225 55.5686 44.39 55.5686H52.9865C54.061 55.5686 54.884 55.3748 55.5027 55.0881C56.2063 54.7568 56.7687 54.21 57.097 53.5381C57.2971 53.1002 57.4085 52.5926 57.4085 52.023C57.3886 51.4361 57.2089 50.8637 56.8867 50.3606L56.864 50.3257C56.7184 50.1147 56.5498 49.9186 56.3607 49.7406H56.3587ZM56.9836 44.5423C57.0372 44.4512 57.0867 44.3563 57.13 44.2613C57.3095 43.839 57.4085 43.3585 57.4085 42.8198C57.3786 42.1501 57.146 41.5022 56.7382 40.9521C56.5266 40.6819 56.2776 40.4395 55.9977 40.2313C54.7602 40.954 53.2587 41.3396 51.5716 41.3396H43.6145C42.875 41.3428 42.1412 41.2194 41.4488 40.9753C41.3705 41.111 41.3004 41.2485 41.2364 41.39C41.0247 41.8421 40.9024 42.3266 40.8755 42.8198C40.8755 43.7808 41.1972 44.705 41.7417 45.3483C42.247 45.9392 42.9957 46.3655 44.1487 46.3655H52.9865C54.2652 46.3655 55.1892 46.0923 55.8369 45.7106C56.3154 45.4161 56.7093 45.015 56.9836 44.5423ZM43.6103 30.3733C42.6348 30.3753 42.0346 30.8093 41.5788 31.5358C41.1449 32.2659 40.9044 33.0833 40.8775 33.919C40.8775 34.6494 41.158 35.6356 41.7108 36.3932C42.2347 37.11 42.8617 37.4646 43.6165 37.4646H51.5737C52.9968 37.4646 53.8795 37.0228 54.4199 36.4765L54.4405 36.4552C54.7039 36.1594 54.9162 35.8266 55.0696 35.469C55.247 35.0253 55.348 34.508 55.348 33.919C55.3469 32.9786 54.9487 32.077 54.2406 31.4123C53.5326 30.7475 52.5727 30.3739 51.5716 30.3733H43.6103Z" fill="#0ACF1E"/>
</svg>
