<svg width="40" height="40" viewBox="0 0 40 40" fill="none" xmlns="http://www.w3.org/2000/svg">
<path d="M20.0002 21.6666C23.6821 21.6666 26.6668 18.6819 26.6668 15C26.6668 11.3181 23.6821 8.33331 20.0002 8.33331C16.3183 8.33331 13.3335 11.3181 13.3335 15C13.3335 18.6819 16.3183 21.6666 20.0002 21.6666Z" fill="#2D867F"/>
<path d="M28.3335 20C31.0949 20 33.3335 17.7614 33.3335 15C33.3335 12.2386 31.0949 10 28.3335 10C25.5721 10 23.3335 12.2386 23.3335 15C23.3335 17.7614 25.5721 20 28.3335 20Z" fill="#2D867F"/>
<path d="M11.6665 20C14.4279 20 16.6665 17.7614 16.6665 15C16.6665 12.2386 14.4279 10 11.6665 10C8.90508 10 6.6665 12.2386 6.6665 15C6.6665 17.7614 8.90508 20 11.6665 20Z" fill="#2D867F"/>
<path fill-rule="evenodd" clip-rule="evenodd" d="M29.2816 30H33.1582C34.1449 30 34.8999 29.15 34.6616 28.1933C34.0466 25.7433 32.4132 21.6667 28.3332 21.6667C26.8566 21.6667 25.6999 22.2 24.7966 23C27.3099 24.6283 28.6099 27.4833 29.2816 30ZM15.2032 23C14.2342 22.1263 12.9713 21.6501 11.6666 21.6667C7.58658 21.6667 5.95325 25.7433 5.33825 28.1933C5.09992 29.15 5.85492 30 6.84158 30H10.7199C11.3916 27.4833 12.6899 24.6283 15.2032 23Z" fill="#2D867F"/>
<path d="M20.0002 23.3333C26.1819 23.3333 27.7769 28.835 28.1902 31.6766C28.3236 32.5883 27.5869 33.3333 26.6669 33.3333H13.3336C12.4136 33.3333 11.6786 32.5883 11.8102 31.6766C12.2236 28.835 13.8186 23.3333 20.0002 23.3333Z" fill="#2D867F"/>
</svg>
