<svg width="40" height="40" viewBox="0 0 40 40" fill="none" xmlns="http://www.w3.org/2000/svg">
<circle cx="20" cy="20" r="20" fill="#EBF9FA"/>
<path fill-rule="evenodd" clip-rule="evenodd" d="M14.3067 23.9069C14.9633 25.1177 15.9117 26.0944 17.0417 26.7236C18.1717 27.3527 19.4371 27.6086 20.6912 27.4615C21.9452 27.3144 23.1365 26.7704 24.1269 25.8926C25.1172 25.0148 25.8661 23.8391 26.2867 22.5019H28.6089C28.1828 24.3548 27.2931 26.0313 26.0455 27.3325C24.7979 28.6337 23.2447 29.5049 21.5701 29.8428C19.8956 30.1808 18.1701 29.9712 16.5982 29.239C15.0264 28.5068 13.6742 27.2826 12.7022 25.7119L10 28.7519V21.2518H16.6667L14.3067 23.9069ZM25.6944 16.0956C25.0374 14.8845 24.0888 13.9078 22.9584 13.2786C21.828 12.6494 20.5623 12.3936 19.308 12.5408C18.0537 12.688 16.8621 13.2322 15.8715 14.1103C14.8809 14.9883 14.1318 16.1643 13.7111 17.5018H11.3889C11.8148 15.6482 12.7046 13.9709 13.9524 12.6691C15.2003 11.3673 16.754 10.4956 18.429 10.1574C20.1041 9.81916 21.8303 10.0287 23.4027 10.7611C24.9751 11.4935 26.3277 12.718 27.3 14.2893L30 11.2518V18.7518H23.3333L25.6944 16.0956Z" fill="#051A22"/>
</svg>
