<svg width="30" height="30" viewBox="0 0 30 30" fill="none" xmlns="http://www.w3.org/2000/svg">
<path d="M26.2498 26.25L20.821 20.8213M20.821 20.8213C21.7496 19.8927 22.4862 18.7902 22.9888 17.5769C23.4914 16.3637 23.75 15.0633 23.75 13.75C23.75 12.4368 23.4914 11.1364 22.9888 9.92308C22.4862 8.70979 21.7496 7.60737 20.821 6.67876C19.8924 5.75015 18.79 5.01354 17.5767 4.51098C16.3634 4.00842 15.063 3.74976 13.7498 3.74976C12.4365 3.74976 11.1361 4.00842 9.92284 4.51098C8.70955 5.01354 7.60713 5.75015 6.67852 6.67876C4.80311 8.55418 3.74951 11.0978 3.74951 13.75C3.74951 16.4022 4.80311 18.9459 6.67852 20.8213C8.55393 22.6967 11.0975 23.7503 13.7498 23.7503C16.402 23.7503 18.9456 22.6967 20.821 20.8213Z" stroke="#2D867F" stroke-width="4.16667" stroke-linecap="round" stroke-linejoin="round"/>
</svg>
