<svg width="73" height="49" viewBox="0 0 73 49" fill="none" xmlns="http://www.w3.org/2000/svg">
<path d="M31.0429 1.668C15.4544 -3.22453 10.5862 3.60663 9.80322 9.77771L14.6252 5.3899C14.7801 5.31549 14.937 5.27232 15.0272 5.31258C17.5359 4.88193 22.198 4.98511 27.149 7.23325C29.9809 7.21917 31.3969 3.66742 31.7509 1.8933C31.5172 1.8179 31.2812 1.74279 31.0429 1.668Z" fill="#575556"/>
<path d="M57.9466 22.1386C55.8226 20.6498 54.1706 19.6573 54.0526 18.7889C54.1658 17.2421 53.2425 14.6113 50.1587 11.6352C46.8922 8.48274 41.2016 4.94282 31.7509 1.8933C31.3969 3.66742 29.9809 7.21917 27.149 7.23325C29.5106 8.30563 31.938 9.86605 34.2289 12.0894C38.8308 13.206 48.2471 17.97 49.0967 28.0937L52.4597 33.6766C52.0349 32.1878 54.9966 32.56 56.5306 32.9322C59.929 33.8255 60.7785 29.2789 60.7785 26.894C60.0009 25.0478 58.9456 23.364 57.9466 22.1386Z" fill="#646462"/>
<path d="M5.20128 18.4167C5.04261 19.0005 5.06544 19.4617 5.20128 19.8232C5.55035 20.752 6.6457 21.022 7.32525 21.022C8.79925 17.369 13.7303 11.9973 22.4203 16.3816C20.3365 9.52749 24.7045 7.42682 27.149 7.23325C22.198 4.98511 17.5359 4.88193 15.0272 5.31258C15.2377 5.40659 15.0851 5.95535 13.6972 7.62306C11.2192 10.6006 10.2837 12.0894 9.68947 12.0894C9.70323 12.6064 9.74272 13.1056 9.80322 13.5782C10.3696 14.7692 6.97126 17.3001 5.20128 18.4167Z" fill="#6D6966"/>
<path d="M25.733 18.4167C27.975 19.4092 33.3793 22.7341 37.0609 28.0937C38.9073 30.4571 42.1411 34.4973 44.3765 37.0263C47.1138 32.56 50.4338 33.4285 51.7517 34.421L48.7427 29.5825C48.8607 29.4584 49.0967 28.987 49.0967 28.0937C48.2471 17.97 38.8308 13.206 34.2289 12.0894C31.938 9.86605 29.5106 8.30563 27.149 7.23325C24.7045 7.42682 20.3365 9.52749 22.4203 16.3816C23.4695 16.911 24.5736 17.5826 25.733 18.4167Z" fill="#7D7A75"/>
<path d="M46.6187 39.2595H54.7606L51.7517 34.421C50.4338 33.4285 47.1138 32.56 44.3765 37.0263C45.4267 38.2145 46.2566 39.0691 46.6187 39.2595Z" fill="#898883"/>
<path d="M55.8226 39.2595C62.9373 37.3359 62.7564 31.5899 60.7785 26.894C60.7785 29.2789 59.929 33.8255 56.5306 32.9322C54.9966 32.56 52.0349 32.1878 52.4597 33.6766L55.8226 39.2595Z" fill="#797373"/>
<path d="M37.0609 28.0937C33.3793 22.7341 27.975 19.4092 25.733 18.4167C24.5736 17.5826 23.4695 16.911 22.4203 16.3816C13.7303 11.9973 8.79925 17.369 7.32525 21.022L7.35475 21.7664C9.22658 18.6043 13.9367 14.1515 20.0691 16.3816C20.8317 16.659 21.6164 17.0397 22.4203 17.5391C23.2682 18.0658 24.1375 18.7245 25.025 19.5332C27.739 21.022 35.2201 27.0515 43.4328 39.2595H46.6187C46.2566 39.0691 45.4267 38.2145 44.3765 37.0263C42.1411 34.4973 38.9073 30.4571 37.0609 28.0937Z" fill="#2A2927"/>
<path d="M7.517 25.8605L7.67924 29.9547C7.67924 30.5231 11.1196 33.081 14.6252 35.5376C10.6996 27.7541 13.5997 25.5712 16.09 25.369C16.3624 25.3469 16.63 25.3484 16.8831 25.369C16.1273 25.1583 15.3687 25.024 14.6252 24.9493C11.5967 24.6449 8.82022 25.3287 7.517 25.8605Z" fill="#6D6865"/>
<path d="M24.317 28.8381C22.0515 28.8381 19.3611 26.6049 18.2991 25.8605C17.8312 25.6638 17.3577 25.5013 16.8831 25.369C16.63 25.3484 16.3624 25.3469 16.09 25.369C13.5997 25.5712 10.6996 27.7541 14.6252 35.5376C14.6699 34.2969 16.4583 32.56 23.255 35.5376C25.733 36.5301 30.1933 38.664 28.211 39.2595H31.7509C30.6181 35.3887 26.323 30.699 24.317 28.8381Z" fill="#7B7873"/>
<path d="M14.6252 35.5376C16.6285 36.9414 18.6531 38.3121 20.0691 39.2595H28.211C30.1933 38.664 25.733 36.5301 23.255 35.5376C16.4583 32.56 14.6699 34.2969 14.6252 35.5376Z" fill="#8A8782"/>
<path d="M49.0967 28.0937C49.0967 28.987 48.8607 29.4584 48.7427 29.5825L51.7517 34.421L54.7606 39.2595H55.8226L52.4597 33.6766L49.0967 28.0937Z" fill="#4D4747"/>
<path d="M14.6252 5.3899L9.80322 9.77771C9.76821 10.0537 9.74136 10.3284 9.7221 10.6006C9.68621 11.1077 9.67661 11.6063 9.68947 12.0894C10.2837 12.0894 11.2192 10.6006 13.6972 7.62306C15.0851 5.95535 15.2377 5.40659 15.0272 5.31258C14.8863 5.33677 14.7522 5.36263 14.6252 5.3899Z" fill="#21201E"/>
<path d="M7.35475 21.7664L7.517 25.8605C8.82022 25.3287 11.5967 24.6449 14.6252 24.9493C15.3687 25.024 16.1273 25.1583 16.8831 25.369C18.9109 24.2034 22.8572 21.0055 22.4203 17.5391C21.6164 17.0397 20.8317 16.659 20.0691 16.3816C13.9367 14.1515 9.22658 18.6043 7.35475 21.7664Z" fill="#575654"/>
<path d="M43.4328 39.2595C35.2201 27.0515 27.739 21.022 25.025 19.5332C24.1375 18.7245 23.2682 18.0658 22.4203 17.5391C22.8572 21.0055 18.9109 24.2034 16.8831 25.369C17.3577 25.5013 17.8312 25.6638 18.2991 25.8605C19.3611 26.6049 22.0515 28.8381 24.317 28.8381C26.323 30.699 30.6181 35.3887 31.7509 39.2595H43.4328Z" fill="#646462"/>
<path d="M11.5732 40.3761C15.8211 38.5895 12.8712 36.406 10.8652 35.5376C4.91809 36.1331 4.78679 38.267 5.46452 39.2595C6.06534 39.8427 6.77283 40.3572 7.5996 40.7874C9.06863 41.1873 10.6896 40.7765 11.5732 40.3761Z" fill="#3DBBA6"/>
<path d="M64.3185 38.5151C60.1886 39.1354 53.7694 40.9716 61.1325 43.3536C63.0205 43.7258 66.8673 44.0236 67.1505 42.237C67.8585 41.2986 68.2832 39.2403 64.3185 38.5151Z" fill="#3DB09F"/>
<path fill-rule="evenodd" clip-rule="evenodd" d="M54.0526 18.7889C54.1706 19.6573 55.8226 20.6498 57.9466 22.1386C58.9456 23.364 60.0009 25.0478 60.7785 26.894C62.7564 31.5899 62.9373 37.3359 55.8226 39.2595H54.7606H46.6187H43.4328H31.7509H28.211H20.0691C18.6531 38.3121 16.6285 36.9414 14.6252 35.5376C11.1196 33.081 7.67924 30.5231 7.67924 29.9547L7.517 25.8605L7.35475 21.7664L7.32525 21.022C6.6457 21.022 5.55035 20.752 5.20128 19.8232C2.75043 25.2195 0.574761 34.5134 5.46452 39.2595C4.78679 38.267 4.91809 36.1331 10.8652 35.5376C12.8712 36.406 15.8211 38.5895 11.5732 40.3761C10.6896 40.7765 9.06863 41.1873 7.5996 40.7874C9.36011 41.7034 11.6614 42.237 14.6252 42.237C34.2289 42.237 29.273 38.5151 57.9466 46.3312C63.3745 46.2627 73.4516 44.0082 70.3364 35.5376C67.0325 30.3713 59.1502 19.7887 54.0526 18.7889ZM61.1325 43.3536C53.7694 40.9716 60.1886 39.1354 64.3185 38.5151C68.2832 39.2403 67.8585 41.2986 67.1505 42.237C66.8673 44.0236 63.0205 43.7258 61.1325 43.3536Z" fill="#D0EAE7"/>
<path d="M5.20128 18.4167C6.97126 17.3001 10.3696 14.7692 9.80322 13.5782C9.74272 13.1056 9.70323 12.6064 9.68947 12.0894C9.67661 11.6063 9.68621 11.1077 9.7221 10.6006C7.10843 10.8984 2.78723 18.4167 0.953334 22.1386C-3.29461 41.7904 7.67924 45.959 13.6972 45.5868C32.9545 42.0137 41.5448 44.5943 43.4328 46.3312C55.6102 52.584 69.6284 46.3312 72.8144 42.9814C74.9384 29.2103 58.3006 16.0048 50.1587 11.6352C53.2425 14.6113 54.1658 17.2421 54.0526 18.7889C59.1502 19.7887 67.0325 30.3713 70.3364 35.5376C73.4516 44.0082 63.3745 46.2627 57.9466 46.3312C29.273 38.5151 34.2289 42.237 14.6252 42.237C11.6614 42.237 9.36011 41.7034 7.5996 40.7874C6.79306 40.5678 6.03231 40.1038 5.46452 39.2595C0.574761 34.5134 2.75043 25.2195 5.20128 19.8232C5.06544 19.4617 5.04261 19.0005 5.20128 18.4167Z" fill="#B9D8D3"/>
</svg>
