<svg width="49" height="44" viewBox="0 0 49 44" fill="none" xmlns="http://www.w3.org/2000/svg">
<rect width="48.207" height="43.5023" rx="6.12876" fill="#2D867F"/>
<path d="M33.5114 21.1596L17.1998 13.3563C17.072 13.2951 16.9284 13.2706 16.7863 13.2857C16.6442 13.3008 16.5098 13.3549 16.3991 13.4414C16.2934 13.5262 16.2145 13.6375 16.1712 13.7628C16.128 13.8881 16.1222 14.0225 16.1544 14.1508L18.1192 21.0815H26.5048V22.5003H18.1192L16.1247 29.4097C16.0945 29.5169 16.091 29.6294 16.1144 29.7381C16.1379 29.8468 16.1877 29.9487 16.2598 30.0356C16.3319 30.1225 16.4243 30.1921 16.5297 30.2386C16.635 30.2852 16.7502 30.3074 16.8662 30.3036C16.9822 30.3029 17.0965 30.2762 17.1998 30.2255L33.5114 22.4223C33.6328 22.3627 33.7347 22.2723 33.8059 22.1609C33.8771 22.0495 33.9147 21.9215 33.9147 21.7909C33.9147 21.6604 33.8771 21.5323 33.8059 21.4209C33.7347 21.3095 33.6328 21.2191 33.5114 21.1596Z" fill="#EBF9FA"/>
</svg>
