<svg width="73" height="75" viewBox="0 0 73 75" fill="none" xmlns="http://www.w3.org/2000/svg">
<ellipse cx="36.5" cy="37.5" rx="36.5" ry="37.5" fill="#EBF9FA"/>
<path d="M20.7096 16.1045L36.5 31.8942L52.2086 16.1863C52.5556 15.817 52.9736 15.5215 53.4376 15.3177C53.9015 15.1138 54.4018 15.0058 54.9086 15C55.9935 15 57.034 15.431 57.8012 16.1981C58.5683 16.9653 58.9993 18.0057 58.9993 19.0906C59.0089 19.5921 58.9158 20.0903 58.7259 20.5546C58.536 21.0188 58.2531 21.4394 57.8948 21.7904L41.9817 37.4984L57.8948 53.4109C58.569 54.0705 58.9644 54.9636 58.9993 55.9062C58.9993 56.9911 58.5683 58.0315 57.8012 58.7987C57.034 59.5658 55.9935 59.9968 54.9086 59.9968C54.3872 60.0184 53.867 59.9314 53.3811 59.7412C52.8952 59.5511 52.4541 59.262 52.0859 58.8923L36.5 43.1025L20.7505 58.8514C20.4048 59.2084 19.9919 59.4934 19.5355 59.69C19.0791 59.8866 18.5883 59.9908 18.0915 59.9968C17.0065 59.9968 15.966 59.5658 15.1988 58.7987C14.4317 58.0315 14.0007 56.9911 14.0007 55.9062C13.9911 55.4046 14.0842 54.9065 14.2741 54.4422C14.464 53.9779 14.7469 53.5574 15.1052 53.2063L31.0183 37.4984L15.1052 21.5859C14.431 20.9263 14.0356 20.0331 14.0007 19.0906C14.0007 18.0057 14.4317 16.9653 15.1988 16.1981C15.966 15.431 17.0065 15 18.0915 15C19.0732 15.0123 20.0141 15.4091 20.7096 16.1045Z" fill="#F24E1E"/>
</svg>
