<svg width="40" height="40" viewBox="0 0 40 40" fill="none" xmlns="http://www.w3.org/2000/svg">
<path fill-rule="evenodd" clip-rule="evenodd" d="M37.0892 10.7872C37.0892 11.2942 37.0356 11.7931 36.9318 12.2815C36.9671 11.8141 37.0155 11.3205 37.0892 10.7872Z" fill="#949DEC"/>
<path d="M22.6372 36.6469C6.4707 36.6469 2.63317 30.9331 0.469466 26.1552C0.376497 25.6971 0.300944 25.2525 0.241129 24.8217C-0.213474 26.6947 -0.338847 31.0612 2.79649 33.5437C4.96019 36.2036 11.7126 41.1686 21.4125 39.75C26.5564 39.5038 37.4321 36.7947 39.7836 27.9285C39.9469 27.5837 40.1755 26.303 39.7836 23.9387C39.5876 31.9774 28.271 35.7603 22.6372 36.6469Z" fill="#626ED0"/>
<path d="M0.469466 26.1552C2.63317 30.9331 6.4707 36.6469 22.6372 36.6469C28.271 35.7603 39.5876 31.9774 39.7836 23.9387C39.9339 17.773 39.3536 16.3077 39.0487 16.4067C38.9561 16.4368 39.0299 16.5981 39.0487 16.8457C38.8819 21.9793 36.8444 25.313 34.1498 27.4147C32.3535 29.5304 27.5362 33.1272 22.6372 30.5883C17.2045 30.6209 13.0961 29.8746 10.0224 28.6702C0.910379 28.0814 0.856599 19.6553 1.96872 15.5158C1.04669 16.5155 -0.470726 19.6948 0.241129 24.8217C0.300944 25.2525 0.376497 25.6971 0.469466 26.1552Z" fill="#5A56A2"/>
<path d="M22.6372 30.5883C24.2702 28.2756 28.8589 24.4029 34.1498 27.4147C31.9242 29.86 25.5474 30.5493 22.6372 30.5883Z" fill="#6665A7"/>
<path d="M34.1498 27.4147C32.3535 29.5304 27.5362 33.1272 22.6372 30.5883C25.5474 30.5493 31.9242 29.86 34.1498 27.4147Z" fill="#8080C8"/>
<path d="M28.6385 20.1996C30.696 24.183 32.6801 20.1049 33.415 17.5679C33.415 17.496 33.4029 17.4248 33.3795 17.3558C32.9461 17.1543 30.1565 19.0774 28.6385 20.1996Z" fill="#787DC1"/>
<path d="M20.5552 21.5744C11.4237 21.5744 4.02122 16.7448 4.02122 10.7872V15.5158L5.36843 18.1757C5.36843 18.1757 8.25334 22.5089 13.0843 24.8217C15.221 25.8447 17.7384 26.4724 20.5552 26.1552C29.7407 25.1208 34.8846 21.8699 35.9869 18.7667C36.7796 16.535 36.7796 14.9979 36.8772 13.1515C36.8921 12.8699 36.9092 12.5811 36.9318 12.2815C36.5099 14.2677 35.2593 16.0809 33.415 17.5679C32.6801 20.1049 30.696 24.183 28.6385 20.1996C26.2485 21.0751 23.4912 21.5744 20.5552 21.5744Z" fill="#51519B"/>
<path d="M4.02122 10.7872C4.02122 16.7448 11.4237 21.5744 20.5552 21.5744C23.4912 21.5744 26.2485 21.0751 28.6385 20.1996C29.0467 19.2294 30.1327 17.2004 31.2104 16.8457C32.3982 16.4549 33.2052 16.8422 33.3795 17.3558C33.4393 17.3836 33.4542 17.4518 33.415 17.5679C35.2593 16.0809 36.5099 14.2677 36.9318 12.2815C36.9671 11.8141 37.0155 11.3205 37.0892 10.7872C37.0892 4.82959 29.6867 0 20.5552 0C11.4237 0 4.02122 4.82959 4.02122 10.7872Z" fill="#949DEC"/>
<path fill-rule="evenodd" clip-rule="evenodd" d="M37.0892 10.7872C37.0892 11.2942 37.0356 11.7931 36.9318 12.2815C36.9671 11.8141 37.0155 11.3205 37.0892 10.7872Z" fill="#949DEC"/>
<path d="M22.6372 36.6469C6.4707 36.6469 2.63317 30.9331 0.469466 26.1552C0.376497 25.6971 0.300944 25.2525 0.241129 24.8217C-0.213474 26.6947 -0.338847 31.0612 2.79649 33.5437C4.96019 36.2036 11.7126 41.1686 21.4125 39.75C26.5564 39.5038 37.4321 36.7947 39.7836 27.9285C39.9469 27.5837 40.1755 26.303 39.7836 23.9387C39.5876 31.9774 28.271 35.7603 22.6372 36.6469Z" fill="#154D8F"/>
<path d="M0.469466 26.1552C2.63317 30.9331 6.4707 36.6469 22.6372 36.6469C28.271 35.7603 39.5876 31.9774 39.7836 23.9387C39.9339 17.773 39.3536 16.3077 39.0487 16.4067C38.9561 16.4368 39.0299 16.5981 39.0487 16.8457C38.8819 21.9793 36.8444 25.313 34.1498 27.4147C32.3535 29.5304 27.5362 33.1272 22.6372 30.5883C17.2045 30.6209 13.0961 29.8746 10.0224 28.6702C0.910379 28.0814 0.856599 19.6553 1.96872 15.5158C1.04669 16.5155 -0.470726 19.6948 0.241129 24.8217C0.300944 25.2525 0.376497 25.6971 0.469466 26.1552Z" fill="#2D6FD1"/>
<path d="M22.6372 30.5883C24.2702 28.2756 28.8589 24.4029 34.1498 27.4147C31.9242 29.86 25.5474 30.5493 22.6372 30.5883Z" fill="#154FA6"/>
<path d="M34.1498 27.4147C32.3535 29.5304 27.5362 33.1272 22.6372 30.5883C25.5474 30.5493 31.9242 29.86 34.1498 27.4147Z" fill="#3495CB"/>
<path d="M28.6385 20.1996C30.696 24.183 32.6801 20.1049 33.415 17.5679C33.415 17.496 33.4029 17.4248 33.3795 17.3558C32.9461 17.1543 30.1565 19.0774 28.6385 20.1996Z" fill="#3495CB"/>
<path d="M20.5552 21.5744C11.4237 21.5744 4.02122 16.7448 4.02122 10.7872V15.5158L5.36843 18.1757C5.36843 18.1757 8.25334 22.5089 13.0843 24.8217C15.221 25.8447 17.7384 26.4724 20.5552 26.1552C29.7407 25.1208 34.8846 21.8699 35.9869 18.7667C36.7796 16.535 36.7796 14.9979 36.8772 13.1515C36.8921 12.8699 36.9092 12.5811 36.9318 12.2815C36.5099 14.2677 35.2593 16.0809 33.415 17.5679C32.6801 20.1049 30.696 24.183 28.6385 20.1996C26.2485 21.0751 23.4912 21.5744 20.5552 21.5744Z" fill="#2D6FD1"/>
<path d="M4.02122 10.7872C4.02122 16.7448 11.4237 21.5744 20.5552 21.5744C23.4912 21.5744 26.2485 21.0751 28.6385 20.1996C29.0467 19.2294 30.1327 17.2004 31.2104 16.8457C32.3982 16.4549 33.2052 16.8422 33.3795 17.3558C33.4393 17.3836 33.4542 17.4518 33.415 17.5679C35.2593 16.0809 36.5099 14.2677 36.9318 12.2815C36.9671 11.8141 37.0155 11.3205 37.0892 10.7872C37.0892 4.82959 29.6867 0 20.5552 0C11.4237 0 4.02122 4.82959 4.02122 10.7872Z" fill="url(#paint0_linear_124_223)"/>
<path d="M35.9869 18.7667C34.8846 21.8699 29.7407 25.1208 20.5552 26.1552C17.7384 26.4724 15.221 25.8447 13.0843 24.8217C11.1247 25.5282 7.12389 23.6408 5.36843 22.6088C2.50721 20.2662 1.76416 17.7147 1.96872 15.5158C1.01557 19.1897 1.95397 25.5085 10.0224 28.6702C13.0961 29.8746 17.2045 30.6209 22.6372 30.5883C24.2702 28.2756 28.8589 24.4029 34.1498 27.4147C36.8444 25.313 38.8819 21.9793 39.0487 16.8457C38.9891 15.7128 38.4712 13.3879 36.8772 13.1515C36.7796 14.9979 36.7796 16.535 35.9869 18.7667Z" fill="#73C0EC"/>
<path d="M31.2104 16.8457C30.1327 17.2004 29.0467 19.2294 28.6385 20.1996C30.1565 19.0774 32.9461 17.1543 33.3795 17.3558C33.2052 16.8422 32.3982 16.4549 31.2104 16.8457Z" fill="#154FA6"/>
<path d="M4.02122 15.5158V10.7872C3.14211 11.7772 2.15643 13.498 1.96872 15.5158C1.76416 17.7147 2.50721 20.2662 5.36843 22.6088C7.12389 23.6408 11.1247 25.5282 13.0843 24.8217C8.25334 22.5089 5.36843 18.1757 5.36843 18.1757L4.02122 15.5158Z" fill="url(#paint1_linear_124_223)"/>
<path d="M1.96872 15.5158C1.01557 19.1897 1.95397 25.5085 10.0224 28.6702C0.910379 28.0814 0.856599 19.6553 1.96872 15.5158Z" fill="#154D8F"/>
<defs>
<linearGradient id="paint0_linear_124_223" x1="20" y1="0" x2="20" y2="40" gradientUnits="userSpaceOnUse">
<stop stop-color="#73C0EC"/>
<stop offset="1" stop-color="#55C2FF"/>
</linearGradient>
<linearGradient id="paint1_linear_124_223" x1="-3.00364" y1="28.8463" x2="3.88042" y2="44.7663" gradientUnits="userSpaceOnUse">
<stop offset="0.0284188" stop-color="#497AC2"/>
<stop offset="0.754915" stop-color="#154D8F"/>
</linearGradient>
</defs>
</svg>
