<svg width="30" height="31" viewBox="0 0 30 31" fill="none" xmlns="http://www.w3.org/2000/svg">
<g clip-path="url(#clip0_120_544)">
<path d="M14 0.5V30.5H16V0.5H14ZM9.22997 6.526C9.44929 6.57783 9.64467 6.70223 9.78444 6.87902C9.9242 7.05582 10.0001 7.27464 9.99997 7.5V23.5C9.99997 23.7652 9.89461 24.0196 9.70707 24.2071C9.51954 24.3946 9.26518 24.5 8.99997 24.5H0.999967C0.829438 24.5 0.661744 24.4564 0.512822 24.3733C0.363899 24.2902 0.238695 24.1704 0.149109 24.0253C0.0595237 23.8802 0.00853218 23.7146 0.000981027 23.5443C-0.00657012 23.3739 0.0295699 23.2045 0.105967 23.052L8.10597 7.052C8.20671 6.85056 8.37251 6.68902 8.5765 6.59355C8.7805 6.49809 9.01075 6.47429 9.22997 6.526ZM20.77 6.526C20.9892 6.47429 21.2194 6.49809 21.4234 6.59355C21.6274 6.68902 21.7932 6.85056 21.894 7.052L29.894 23.052C29.9704 23.2045 30.0065 23.3739 29.999 23.5443C29.9914 23.7146 29.9404 23.8802 29.8508 24.0253C29.7612 24.1704 29.636 24.2902 29.4871 24.3733C29.3382 24.4564 29.1705 24.5 29 24.5H21C20.7348 24.5 20.4804 24.3946 20.2929 24.2071C20.1053 24.0196 20 23.7652 20 23.5V7.5C19.9998 7.27464 20.0757 7.05582 20.2155 6.87902C20.3553 6.70223 20.5506 6.57783 20.77 6.526Z" fill="#0A3F67" fill-opacity="0.58"/>
</g>
<defs>
<clipPath id="clip0_120_544">
<rect width="30" height="30" fill="white" transform="translate(0 0.5)"/>
</clipPath>
</defs>
</svg>
