<svg width="47" height="60" viewBox="0 0 47 60" fill="none" xmlns="http://www.w3.org/2000/svg">
<path fill-rule="evenodd" clip-rule="evenodd" d="M41.0892 30.7872C41.0892 31.2942 41.0356 31.7931 40.9318 32.2815C40.9671 31.8141 41.0155 31.3205 41.0892 30.7872Z" fill="#949DEC"/>
<path d="M26.6372 56.6469C10.4707 56.6469 6.63317 50.9331 4.46947 46.1552C4.3765 45.6971 4.30094 45.2525 4.24113 44.8217C3.78653 46.6947 3.66115 51.0612 6.79649 53.5437C8.96019 56.2036 15.7126 61.1686 25.4125 59.75C30.5564 59.5038 41.4321 56.7947 43.7836 47.9285C43.9469 47.5837 44.1755 46.303 43.7836 43.9387C43.5876 51.9774 32.271 55.7603 26.6372 56.6469Z" fill="#626ED0"/>
<path d="M4.46947 46.1552C6.63317 50.9331 10.4707 56.6469 26.6372 56.6469C32.271 55.7603 43.5876 51.9774 43.7836 43.9387C43.9339 37.773 43.3536 36.3077 43.0487 36.4067C42.9561 36.4368 43.0299 36.5981 43.0487 36.8457C42.8819 41.9793 40.8444 45.313 38.1498 47.4147C36.3535 49.5304 31.5362 53.1272 26.6372 50.5883C21.2045 50.6209 17.0961 49.8746 14.0224 48.6702C4.91038 48.0814 4.8566 39.6553 5.96872 35.5158C5.04669 36.5155 3.52927 39.6948 4.24113 44.8217C4.30094 45.2525 4.3765 45.6971 4.46947 46.1552Z" fill="#5A56A2"/>
<path d="M26.6372 50.5883C28.2702 48.2756 32.8589 44.4029 38.1498 47.4147C35.9242 49.86 29.5474 50.5493 26.6372 50.5883Z" fill="#6665A7"/>
<path d="M38.1498 47.4147C36.3535 49.5304 31.5362 53.1272 26.6372 50.5883C29.5474 50.5493 35.9242 49.86 38.1498 47.4147Z" fill="#8080C8"/>
<path d="M32.6385 40.1996C34.696 44.183 36.6801 40.1049 37.415 37.5679C37.415 37.496 37.4029 37.4248 37.3795 37.3558C36.9461 37.1543 34.1565 39.0774 32.6385 40.1996Z" fill="#787DC1"/>
<path d="M24.5552 41.5744C15.4237 41.5744 8.02122 36.7448 8.02122 30.7872V35.5158L9.36843 38.1757C9.36843 38.1757 12.2533 42.5089 17.0843 44.8217C19.221 45.8447 21.7384 46.4724 24.5552 46.1552C33.7407 45.1208 38.8846 41.8699 39.9869 38.7667C40.7796 36.535 40.7796 34.9979 40.8772 33.1515C40.8921 32.8699 40.9092 32.5811 40.9318 32.2815C40.51 34.2677 39.2593 36.0809 37.415 37.5679C36.6801 40.1049 34.696 44.183 32.6385 40.1996C30.2485 41.0751 27.4912 41.5744 24.5552 41.5744Z" fill="#51519B"/>
<path d="M8.02122 30.7872C8.02122 36.7448 15.4237 41.5744 24.5552 41.5744C27.4912 41.5744 30.2485 41.0751 32.6385 40.1996C33.0467 39.2294 34.1327 37.2004 35.2104 36.8457C36.3982 36.4549 37.2052 36.8422 37.3795 37.3558C37.4393 37.3836 37.4542 37.4518 37.415 37.5679C39.2593 36.0809 40.51 34.2677 40.9318 32.2815C40.9671 31.8141 41.0155 31.3205 41.0892 30.7872C41.0892 24.8296 33.6867 20 24.5552 20C15.4237 20 8.02122 24.8296 8.02122 30.7872Z" fill="#949DEC"/>
<path fill-rule="evenodd" clip-rule="evenodd" d="M41.0892 30.7872C41.0892 31.2942 41.0356 31.7931 40.9318 32.2815C40.9671 31.8141 41.0155 31.3205 41.0892 30.7872Z" fill="#949DEC"/>
<path d="M26.6372 56.6469C10.4707 56.6469 6.63317 50.9331 4.46947 46.1552C4.3765 45.6971 4.30094 45.2525 4.24113 44.8217C3.78653 46.6947 3.66115 51.0612 6.79649 53.5437C8.96019 56.2036 15.7126 61.1686 25.4125 59.75C30.5564 59.5038 41.4321 56.7947 43.7836 47.9285C43.9469 47.5837 44.1755 46.303 43.7836 43.9387C43.5876 51.9774 32.271 55.7603 26.6372 56.6469Z" fill="#154D8F"/>
<path d="M4.46947 46.1552C6.63317 50.9331 10.4707 56.6469 26.6372 56.6469C32.271 55.7603 43.5876 51.9774 43.7836 43.9387C43.9339 37.773 43.3536 36.3077 43.0487 36.4067C42.9561 36.4368 43.0299 36.5981 43.0487 36.8457C42.8819 41.9793 40.8444 45.313 38.1498 47.4147C36.3535 49.5304 31.5362 53.1272 26.6372 50.5883C21.2045 50.6209 17.0961 49.8746 14.0224 48.6702C4.91038 48.0814 4.8566 39.6553 5.96872 35.5158C5.04669 36.5155 3.52927 39.6948 4.24113 44.8217C4.30094 45.2525 4.3765 45.6971 4.46947 46.1552Z" fill="#2D6FD1"/>
<path d="M26.6372 50.5883C28.2702 48.2756 32.8589 44.4029 38.1498 47.4147C35.9242 49.86 29.5474 50.5493 26.6372 50.5883Z" fill="#154FA6"/>
<path d="M38.1498 47.4147C36.3535 49.5304 31.5362 53.1272 26.6372 50.5883C29.5474 50.5493 35.9242 49.86 38.1498 47.4147Z" fill="#3495CB"/>
<path d="M32.6385 40.1996C34.696 44.183 36.6801 40.1049 37.415 37.5679C37.415 37.496 37.4029 37.4248 37.3795 37.3558C36.9461 37.1543 34.1565 39.0774 32.6385 40.1996Z" fill="#3495CB"/>
<path d="M24.5552 41.5744C15.4237 41.5744 8.02122 36.7448 8.02122 30.7872V35.5158L9.36843 38.1757C9.36843 38.1757 12.2533 42.5089 17.0843 44.8217C19.221 45.8447 21.7384 46.4724 24.5552 46.1552C33.7407 45.1208 38.8846 41.8699 39.9869 38.7667C40.7796 36.535 40.7796 34.9979 40.8772 33.1515C40.8921 32.8699 40.9092 32.5811 40.9318 32.2815C40.51 34.2677 39.2593 36.0809 37.415 37.5679C36.6801 40.1049 34.696 44.183 32.6385 40.1996C30.2485 41.0751 27.4912 41.5744 24.5552 41.5744Z" fill="#2D6FD1"/>
<path d="M8.02122 30.7872C8.02122 36.7448 15.4237 41.5744 24.5552 41.5744C27.4912 41.5744 30.2485 41.0751 32.6385 40.1996C33.0467 39.2294 34.1327 37.2004 35.2104 36.8457C36.3982 36.4549 37.2052 36.8422 37.3795 37.3558C37.4393 37.3836 37.4542 37.4518 37.415 37.5679C39.2593 36.0809 40.51 34.2677 40.9318 32.2815C40.9671 31.8141 41.0155 31.3205 41.0892 30.7872C41.0892 24.8296 33.6867 20 24.5552 20C15.4237 20 8.02122 24.8296 8.02122 30.7872Z" fill="url(#paint0_linear_127_63)"/>
<path d="M39.9869 38.7667C38.8846 41.8699 33.7407 45.1208 24.5552 46.1552C21.7384 46.4724 19.221 45.8447 17.0843 44.8217C15.1247 45.5282 11.1239 43.6408 9.36843 42.6088C6.50721 40.2662 5.76416 37.7147 5.96872 35.5158C5.01557 39.1897 5.95397 45.5085 14.0224 48.6702C17.0961 49.8746 21.2045 50.6209 26.6372 50.5883C28.2702 48.2756 32.8589 44.4029 38.1498 47.4147C40.8444 45.313 42.8819 41.9793 43.0487 36.8457C42.9891 35.7128 42.4712 33.3879 40.8772 33.1515C40.7796 34.9979 40.7796 36.535 39.9869 38.7667Z" fill="#73C0EC"/>
<path d="M35.2104 36.8457C34.1327 37.2004 33.0467 39.2294 32.6385 40.1996C34.1565 39.0774 36.9461 37.1543 37.3795 37.3558C37.2052 36.8422 36.3982 36.4549 35.2104 36.8457Z" fill="#154FA6"/>
<path d="M8.02122 35.5158V30.7872C7.14211 31.7772 6.15643 33.498 5.96872 35.5158C5.76416 37.7147 6.50721 40.2662 9.36843 42.6088C11.1239 43.6408 15.1247 45.5282 17.0843 44.8217C12.2533 42.5089 9.36843 38.1757 9.36843 38.1757L8.02122 35.5158Z" fill="url(#paint1_linear_127_63)"/>
<path d="M5.96872 35.5158C5.01557 39.1897 5.95397 45.5085 14.0224 48.6702C4.91038 48.0814 4.8566 39.6553 5.96872 35.5158Z" fill="#154D8F"/>
<path d="M5.3669 13.1475L6.99065 9.87749C7.03792 9.78286 7.11061 9.70326 7.20058 9.64763C7.29056 9.592 7.39425 9.56253 7.50003 9.56253C7.60581 9.56253 7.7095 9.592 7.79947 9.64763C7.88944 9.70326 7.96214 9.78286 8.0094 9.87749L9.63315 13.1475L13.2632 13.675C13.3679 13.6895 13.4664 13.7332 13.5474 13.801C13.6285 13.8688 13.6889 13.9581 13.7217 14.0586C13.7545 14.1591 13.7583 14.2668 13.7328 14.3693C13.7073 14.4719 13.6535 14.5653 13.5775 14.6387L10.9513 17.1825L11.5713 20.7762C11.6507 21.2375 11.1632 21.5887 10.7463 21.3712L7.50003 19.6737L4.25315 21.3712C3.8369 21.5894 3.3494 21.2375 3.42878 20.7756L4.04878 17.1819L1.42253 14.6381C1.34689 14.5646 1.2934 14.4713 1.26813 14.3689C1.24286 14.2665 1.24682 14.1591 1.27957 14.0588C1.31232 13.9586 1.37254 13.8695 1.45338 13.8018C1.53423 13.734 1.63246 13.6903 1.7369 13.6756L5.3669 13.1475Z" fill="#64748B" stroke="#64748B" stroke-linecap="round" stroke-linejoin="round"/>
<path d="M21.3669 5.14749L22.9907 1.87749C23.0379 1.78286 23.1106 1.70326 23.2006 1.64763C23.2906 1.592 23.3942 1.56253 23.5 1.56253C23.6058 1.56253 23.7095 1.592 23.7995 1.64763C23.8894 1.70326 23.9621 1.78286 24.0094 1.87749L25.6332 5.14749L29.2632 5.67499C29.3679 5.68951 29.4664 5.73318 29.5474 5.801C29.6285 5.86883 29.6889 5.95808 29.7217 6.05857C29.7545 6.15907 29.7583 6.26675 29.7328 6.36934C29.7073 6.47193 29.6535 6.56528 29.5775 6.63874L26.9513 9.18249L27.5713 12.7762C27.6507 13.2375 27.1632 13.5887 26.7463 13.3712L23.5 11.6737L20.2532 13.3712C19.8369 13.5894 19.3494 13.2375 19.4288 12.7756L20.0488 9.18187L17.4225 6.63812C17.3469 6.5646 17.2934 6.47134 17.2681 6.36894C17.2429 6.26654 17.2468 6.1591 17.2796 6.05884C17.3123 5.95857 17.3725 5.86951 17.4534 5.80176C17.5342 5.73402 17.6325 5.69032 17.7369 5.67562L21.3669 5.14749Z" fill="#64748B" stroke="#64748B" stroke-linecap="round" stroke-linejoin="round"/>
<path d="M37.3669 13.1475L38.9907 9.87749C39.0379 9.78286 39.1106 9.70326 39.2006 9.64763C39.2906 9.592 39.3942 9.56253 39.5 9.56253C39.6058 9.56253 39.7095 9.592 39.7995 9.64763C39.8894 9.70326 39.9621 9.78286 40.0094 9.87749L41.6332 13.1475L45.2632 13.675C45.3679 13.6895 45.4664 13.7332 45.5474 13.801C45.6285 13.8688 45.6889 13.9581 45.7217 14.0586C45.7545 14.1591 45.7583 14.2668 45.7328 14.3693C45.7073 14.4719 45.6535 14.5653 45.5775 14.6387L42.9513 17.1825L43.5713 20.7762C43.6507 21.2375 43.1632 21.5887 42.7463 21.3712L39.5 19.6737L36.2532 21.3712C35.8369 21.5894 35.3494 21.2375 35.4288 20.7756L36.0488 17.1819L33.4225 14.6381C33.3469 14.5646 33.2934 14.4713 33.2681 14.3689C33.2429 14.2665 33.2468 14.1591 33.2796 14.0588C33.3123 13.9586 33.3725 13.8695 33.4534 13.8018C33.5342 13.734 33.6325 13.6903 33.7369 13.6756L37.3669 13.1475Z" fill="#64748B" stroke="#64748B" stroke-linecap="round" stroke-linejoin="round"/>
<path d="M14 31.896V45H23.5V40.968H22.1146V38.616C20.6104 36.7344 22.4115 36.04 23.5 35.928V31.896H14Z" fill="#8F9BAD"/>
<path d="M33 45V31.896H23.5V35.928C26.2708 36.264 25.6441 37.86 24.9844 38.616V40.968H23.5V45H33Z" fill="#64748B"/>
<path d="M24.9844 40.968V38.616C25.6441 37.86 26.2708 36.264 23.5 35.928V40.968H24.9844Z" fill="#475569"/>
<path d="M23.5 35.928C22.4115 36.04 20.6104 36.7344 22.1146 38.616V40.968H23.5V35.928Z" fill="#5E6D83"/>
<path d="M19.9863 31.896C19.9863 31.896 19.1946 26.688 23.6478 26.688V24C15.5332 24 16.6217 31.896 16.6217 31.896H19.9863Z" fill="#BFC4CB"/>
<path d="M23.6478 26.688C28.1009 26.688 27.0123 31.896 27.0123 31.896H30.278C30.278 31.896 31.7623 24 23.6478 24V26.688Z" fill="#A3ADBC"/>
<defs>
<linearGradient id="paint0_linear_127_63" x1="24" y1="20" x2="24" y2="60" gradientUnits="userSpaceOnUse">
<stop stop-color="#73C0EC"/>
<stop offset="1" stop-color="#55C2FF"/>
</linearGradient>
<linearGradient id="paint1_linear_127_63" x1="0.996363" y1="48.8463" x2="7.88042" y2="64.7663" gradientUnits="userSpaceOnUse">
<stop offset="0.0284188" stop-color="#497AC2"/>
<stop offset="0.754915" stop-color="#154D8F"/>
</linearGradient>
</defs>
</svg>
