<svg width="52" height="56" viewBox="0 0 52 56" fill="none" xmlns="http://www.w3.org/2000/svg">
<path d="M16.6492 12.2274C16.6492 12.2274 19.9512 1 26.0051 1C32.0589 1 35.9113 12.2274 35.9113 12.2274C35.9113 12.2274 46.9183 9.55421 50.2204 14.3659C53.5224 19.1776 45.2672 28.8011 45.2672 28.8011C45.2672 28.8011 52.9721 38.4246 50.2204 42.167C47.4686 45.9094 35.9113 44.3055 35.9113 44.3055C35.9113 44.3055 31.7858 55.1574 26.0051 54.9983C20.3658 54.8431 16.6492 44.3055 16.6492 44.3055C16.6492 44.3055 4.7182 47.1049 1.78978 42.167C-1.06095 37.36 6.74291 28.8011 6.74291 28.8011C6.74291 28.8011 -1.5414 19.3496 1.78978 14.3659C5.12096 9.38218 16.6492 12.2274 16.6492 12.2274Z" fill="#1DBFF2" stroke="#046E8F"/>
</svg>
